<svg width="32" height="32" viewBox="0 0 32 32" xmlns="http://www.w3.org/2000/svg">
  <defs>
    <linearGradient id="fireGradient" x1="0%" y1="0%" x2="100%" y2="100%">
      <stop offset="0%" style="stop-color:#ff4444;stop-opacity:1" />
      <stop offset="50%" style="stop-color:#ff6b35;stop-opacity:1" />
      <stop offset="100%" style="stop-color:#ff8c00;stop-opacity:1" />
    </linearGradient>
    <linearGradient id="shieldGradient" x1="0%" y1="0%" x2="100%" y2="100%">
      <stop offset="0%" style="stop-color:#1f2937;stop-opacity:1" />
      <stop offset="100%" style="stop-color:#374151;stop-opacity:1" />
    </linearGradient>
  </defs>

  <!-- Background circle -->
  <circle cx="16" cy="16" r="16" fill="url(#shieldGradient)"/>

  <!-- Fire flame -->
  <path d="M11.5 19.5C11.5 17.57 12.5 16 14 16c0-1.38-0.5-2-1-3-1.072-2.143-0.224-4.054 2-6 0.5 2.5 2 4.9 4 6.5 2 1.6 3 3.5 3 5.5 0 3.866-3.134 7-7 7s-7-3.134-7-7c0-1.153 0.433-2.294 1-3 0.828 0.828 2.172 0.828 3 0z" fill="url(#fireGradient)"/>

  <!-- Inner flame highlight -->
  <path d="M14 16c0.5 1 1 2 1 3.5 0 1.38-1.12 2.5-2.5 2.5s-2.5-1.12-2.5-2.5c0-0.69 0.26-1.32 0.69-1.79C11.42 16.96 12.58 16 14 16z" fill="#ffeb3b" opacity="0.7"/>

  <!-- Small highlight dot -->
  <circle cx="15" cy="18" r="1" fill="#fff" opacity="0.8"/>
</svg>